<svg width="50" height="50" viewBox="0 0 50 50" fill="none" xmlns="http://www.w3.org/2000/svg">
<path fill-rule="evenodd" clip-rule="evenodd" d="M45.1613 27.0403V11.2258C47.8927 10.8323 50 8.48306 50 5.64516C50 2.53306 47.4677 0 44.3548 0C41.2419 0 38.7097 2.53306 38.7097 5.64516H0V37.9032H24.2347C24.654 44.6419 30.2548 50 37.0968 50C44.2113 50 50 44.2113 50 37.0968C50 33.0331 48.1073 29.4073 45.1613 27.0403ZM44.3548 1.6129C46.5782 1.6129 48.3871 3.42177 48.3871 5.64516C48.3871 7.86855 46.5782 9.67742 44.3548 9.67742C42.1315 9.67742 40.3226 7.86855 40.3226 5.64516C40.3226 3.42177 42.1315 1.6129 44.3548 1.6129ZM38.9476 7.25806H1.6129V36.2903H24.2347C24.2685 35.7435 24.329 35.204 24.429 34.6774H22.5806V25H27.4194V28.5911C29.7855 25.9016 33.2419 24.1935 37.0968 24.1935C39.4484 24.1935 41.6476 24.8363 43.5484 25.9403V11.2266C42.5944 11.0887 41.7185 10.7137 40.9806 10.1605L36.0476 15.0927C36.1992 15.4081 36.2903 15.7565 36.2903 16.129C36.2903 17.4629 35.2048 18.5484 33.871 18.5484C32.5371 18.5484 31.4516 17.4629 31.4516 16.129C31.4516 15.7565 31.5427 15.4081 31.6935 15.0919L30.0685 13.4669C29.7532 13.6185 29.4048 13.7097 29.0323 13.7097C28.6597 13.7097 28.3113 13.6185 27.9952 13.4677L23.9508 17.5121C24.1024 17.8274 24.1935 18.1758 24.1935 18.5484C24.1935 19.8823 23.1081 20.9677 21.7742 20.9677C20.4403 20.9677 19.3548 19.8823 19.3548 18.5484C19.3548 17.2145 20.4403 16.129 21.7742 16.129C22.1468 16.129 22.4952 16.2202 22.8113 16.371L26.8556 12.3266C26.704 12.0113 26.6129 11.6629 26.6129 11.2903C26.6129 9.95645 27.6984 8.87097 29.0323 8.87097C30.3661 8.87097 31.4516 9.95645 31.4516 11.2903C31.4516 11.6629 31.3605 12.0113 31.2097 12.3274L32.8347 13.9524C33.15 13.8008 33.4984 13.7097 33.871 13.7097C34.2435 13.7097 34.5919 13.8008 34.9081 13.9524L39.8403 9.02016C39.4468 8.49436 39.1403 7.90161 38.9476 7.25806ZM33.871 15.3226C34.3153 15.3226 34.6774 15.6839 34.6774 16.129C34.6774 16.5742 34.3153 16.9355 33.871 16.9355C33.4266 16.9355 33.0645 16.5742 33.0645 16.129C33.0645 15.6839 33.4266 15.3226 33.871 15.3226ZM29.0323 10.4839C28.5879 10.4839 28.2258 10.8452 28.2258 11.2903C28.2258 11.7355 28.5879 12.0968 29.0323 12.0968C29.4766 12.0968 29.8387 11.7355 29.8387 11.2903C29.8387 10.8452 29.4766 10.4839 29.0323 10.4839ZM22.5806 18.5484C22.5806 18.9935 22.2185 19.3548 21.7742 19.3548C21.3298 19.3548 20.9677 18.9935 20.9677 18.5484C20.9677 18.1032 21.3298 17.7419 21.7742 17.7419C22.2185 17.7419 22.5806 18.1032 22.5806 18.5484ZM30.6452 37.0968C30.6452 40.654 33.5395 43.5484 37.0968 43.5484C40.654 43.5484 43.5484 40.654 43.5484 37.0968C43.5484 33.5395 40.654 30.6452 37.0968 30.6452C33.5395 30.6452 30.6452 33.5395 30.6452 37.0968ZM25.8065 30.8637C25.4202 31.5605 25.1008 32.2968 24.8476 33.0645H24.1935V26.6129H25.8065V30.8637ZM36.2903 29.0734V25.8476C30.4411 26.2637 25.8065 31.1435 25.8065 37.0968C25.8065 38.8637 26.2258 40.5315 26.9532 42.0218L29.7508 40.4065C29.2935 39.3952 29.0323 38.2766 29.0323 37.0968C29.0323 32.9226 32.221 29.4798 36.2903 29.0734ZM37.0968 48.3871C33.2145 48.3871 29.7839 46.4169 27.7516 43.4234L30.5605 41.8016C32.0266 43.8323 34.4065 45.1613 37.0968 45.1613C39.7871 45.1613 42.1669 43.8323 43.6331 41.8016L46.4419 43.4234C44.4097 46.4169 40.979 48.3871 37.0968 48.3871ZM44.4427 40.4065L47.2403 42.0218C47.9677 40.5315 48.3871 38.8637 48.3871 37.0968C48.3871 31.1435 43.7524 26.2637 37.9032 25.8476V29.0734C41.9726 29.479 45.1613 32.9226 45.1613 37.0968C45.1613 38.2766 44.9 39.3952 44.4427 40.4065Z" fill="#00FFA5"/>
<path fill-rule="evenodd" clip-rule="evenodd" d="M32 37C32 34.2425 34.2425 32 37 32C39.7575 32 42 34.2425 42 37C42 39.7575 39.7575 42 37 42C34.2425 42 32 39.7575 32 37ZM33.6667 37C33.6667 38.8383 35.1617 40.3333 37 40.3333C38.8383 40.3333 40.3333 38.8383 40.3333 37C40.3333 35.1617 38.8383 33.6667 37 33.6667C35.1617 33.6667 33.6667 35.1617 33.6667 37Z" fill="#00FFA5"/>
<path d="M3 9H5V11H3V9Z" fill="#00FFA5"/>
<path d="M7 9H18V11H7V9Z" fill="#00FFA5"/>
<path d="M3 12H5V14H3V12Z" fill="#00FFA5"/>
<path d="M7 12H18V14H7V12Z" fill="#00FFA5"/>
<path d="M3 15H5V17H3V15Z" fill="#00FFA5"/>
<path d="M7 15H18V17H7V15Z" fill="#00FFA5"/>
<path d="M3 18H5V20H3V18Z" fill="#00FFA5"/>
<path d="M7 18H18V20H7V18Z" fill="#00FFA5"/>
<path fill-rule="evenodd" clip-rule="evenodd" d="M8 35H3V27H8V35ZM6.33333 28.6H4.66667V33.4H6.33333V28.6Z" fill="#00FFA5"/>
<path fill-rule="evenodd" clip-rule="evenodd" d="M15 34H10V28H15V34ZM13.3333 29.5H11.6667V32.5H13.3333V29.5Z" fill="#00FFA5"/>
<path fill-rule="evenodd" clip-rule="evenodd" d="M21 35H16V22H21V35ZM19.3333 23.625H17.6667V33.375H19.3333V23.625Z" fill="#00FFA5"/>
</svg>
