<svg width="49" height="49" viewBox="0 0 49 49" fill="none" xmlns="http://www.w3.org/2000/svg">
<path fill-rule="evenodd" clip-rule="evenodd" d="M41.4238 23.7098H48.2095C48.6465 23.7098 48.9998 24.0638 48.9998 24.5001V45.0484C48.9998 45.4847 48.6465 45.8387 48.2095 45.8387H19.2956L16.3651 48.7684C16.211 48.9226 16.0087 49 15.8064 49C15.6041 49 15.4017 48.9226 15.2476 48.7684L12.3179 45.8387H0.790319C0.353273 45.8387 0 45.4847 0 45.0484V24.5001C0 24.0638 0.353273 23.7098 0.790319 23.7098H9.15664L32.6347 0.231761C32.9437 -0.0772537 33.4432 -0.0772537 33.7522 0.231761L48.7682 15.2478C49.0773 15.5568 49.0773 16.0563 48.7682 16.3653L41.4238 23.7098ZM47.092 15.8066L33.1934 1.90803L11.3909 23.7098H15.8443C16.0261 21.6866 16.8986 19.8072 18.352 18.353C21.7425 14.9633 27.2581 14.9641 30.647 18.353C32.1012 19.8072 32.9737 21.6866 33.1547 23.7098H39.1888L47.092 15.8066ZM20.7277 23.7098C20.6202 23.1961 20.7641 22.6468 21.1466 22.2651L22.5921 23.7098H20.7277ZM28.9707 23.3826C29.0735 23.4845 29.1667 23.5952 29.2537 23.7098V23.7114H31.5646C31.3891 22.111 30.6834 20.6275 29.5287 19.4721C26.7547 16.6996 22.2427 16.6989 19.4687 19.4721C18.3141 20.6275 17.6091 22.111 17.4329 23.7114H19.1249C19.0261 22.7843 19.3336 21.843 20.0283 21.1484L19.4695 20.5896L20.587 19.4721L21.1458 20.0308L21.1466 20.0301C21.7433 19.4334 22.5375 19.1046 23.3816 19.1046C24.2257 19.1046 25.0191 19.4334 25.6166 20.0301L24.4991 21.1476C23.9016 20.5509 22.8616 20.5509 22.2641 21.1476L24.4999 23.3826C25.7328 22.1497 27.737 22.1505 28.9707 23.3826ZM15.8064 47.0922L14.5529 45.8387H17.0598L15.8064 47.0922ZM1.58064 25.2904V44.2581H47.4192V25.2904H1.58064Z" fill="#00FFA5"/>
<path fill-rule="evenodd" clip-rule="evenodd" d="M22.6 36.9375H21C21 38.7299 22.4352 40.1875 24.2 40.1875V41H25.8V40.1875C27.5648 40.1875 29 38.7299 29 36.9375C29 35.1451 27.5648 33.6875 25.8 33.6875V30.4375C26.6824 30.4375 27.4 31.1663 27.4 32.0625H29C29 30.2701 27.5648 28.8125 25.8 28.8125V28H24.2V28.8125C22.4352 28.8125 21 30.2701 21 32.0625C21 33.8549 22.4352 35.3125 24.2 35.3125V38.5625C23.3176 38.5625 22.6 37.8337 22.6 36.9375ZM22.6 32.0625C22.6 31.1663 23.3176 30.4375 24.2 30.4375V33.6875C23.3176 33.6875 22.6 32.9587 22.6 32.0625ZM27.4 36.9375C27.4 36.0413 26.6824 35.3125 25.8 35.3125V38.5625C26.6824 38.5625 27.4 37.8337 27.4 36.9375Z" fill="#00FFA5"/>
<path fill-rule="evenodd" clip-rule="evenodd" d="M33 34.5C33 39.1866 29.1866 43 24.5 43C19.8134 43 16 39.1866 16 34.5C16 29.8134 19.8134 26 24.5 26C29.1866 26 33 29.8134 33 34.5ZM31.4545 34.5C31.4545 30.6657 28.335 27.5455 24.5 27.5455C20.665 27.5455 17.5455 30.6657 17.5455 34.5C17.5455 38.3343 20.665 41.4545 24.5 41.4545C28.335 41.4545 31.4545 38.3343 31.4545 34.5Z" fill="#00FFA5"/>
<path d="M46 42.2V27.8C46 27.3584 45.6562 27 45.2308 27H36V28.6H44.4615V41.4H36V43H45.2308C45.6562 43 46 42.6416 46 42.2Z" fill="#00FFA5"/>
<path d="M3.76923 43H13V41.4H4.53846V28.6H13V27H3.76923C3.34385 27 3 27.3584 3 27.8V42.2C3 42.6416 3.34385 43 3.76923 43Z" fill="#00FFA5"/>
<path d="M36 38H38V40H36V38Z" fill="#00FFA5"/>
<path d="M39 38H41V40H39V38Z" fill="#00FFA5"/>
<path d="M36 30H38V32H36V30Z" fill="#00FFA5"/>
<path d="M39 30H41V32H39V30Z" fill="#00FFA5"/>
<path d="M33.2191 6.88755L42.1039 15.7774L35.9954 21.889L37.1059 23L43.7697 16.333C44.0768 16.0257 44.0768 15.5292 43.7697 15.2219L33.7743 5.22099C33.4798 4.92634 32.9583 4.92634 32.6638 5.22099L26 11.888L27.1105 12.9991L33.2191 6.88755Z" fill="#00FFA5"/>
<path d="M34.0254 19.4507L35.145 18.3311L36.2645 19.4507L35.145 20.5703L34.0254 19.4507Z" fill="#00FFA5"/>
<path d="M36.2637 17.2112L37.3832 16.0916L38.5028 17.2112L37.3832 18.3307L36.2637 17.2112Z" fill="#00FFA5"/>
<path d="M28.4268 13.8526L29.5463 12.733L30.6659 13.8526L29.5463 14.9722L28.4268 13.8526Z" fill="#00FFA5"/>
<path d="M30.666 11.613L31.7856 10.4935L32.9052 11.613L31.7856 12.7326L30.666 11.613Z" fill="#00FFA5"/>
<path d="M8 30H10V32H8V30Z" fill="#00FFA5"/>
<path d="M12 30H14V32H12V30Z" fill="#00FFA5"/>
<path d="M8 38H10V40H8V38Z" fill="#00FFA5"/>
<path d="M12 38H14V40H12V38Z" fill="#00FFA5"/>
</svg>
