<svg width="50" height="50" viewBox="0 0 50 50" fill="none" xmlns="http://www.w3.org/2000/svg">
<path d="M5.33333 3H4.66667C4.29845 3 4 3.44765 4 3.99994C4 4.55224 4.29845 5 4.66667 5H5.33333C5.70155 5 6 4.55235 6 4.00006C6 3.44776 5.70155 3 5.33333 3Z" fill="#00FFA5"/>
<path d="M10.3333 3H9.66667C9.29845 3 9 3.44767 9 4C9 4.55233 9.29853 5 9.66667 5H10.3333C10.7016 5 11 4.55233 11 4C11 3.44767 10.7016 3 10.3333 3Z" fill="#00FFA5"/>
<path d="M14.3333 3H13.6667C13.2984 3 13 3.44767 13 4C13 4.55233 13.2984 5 13.6667 5H14.3333C14.7016 5 15 4.55233 15 4C15 3.44767 14.7015 3 14.3333 3Z" fill="#00FFA5"/>
<path d="M40.1724 3H17.8276C17.3705 3 17 3.44767 17 4C17 4.55233 17.3705 5 17.8276 5H40.1724C40.6295 5 41 4.55233 41 4C41 3.44767 40.6295 3 40.1724 3Z" fill="#00FFA5"/>
<path fill-rule="evenodd" clip-rule="evenodd" d="M48.3333 30H47.5V25.8333C47.4993 23.5 46.6047 21.2556 45 19.5616V4.1667C44.9973 1.8666 43.1334 0.00273437 40.8333 0H4.1667C1.8666 0.00273437 0.00273437 1.8666 0 4.1667V37.5C0.00273437 39.8 1.8666 41.6639 4.1667 41.6667H26.6667V44.1667C26.6704 47.3868 29.2799 49.9964 32.5 50H44.1667C47.3868 49.9963 49.9964 47.3868 50 44.1667V31.6667C50 30.7462 49.2538 30 48.3333 30ZM45.8333 25.8333V30H30.8333V25.8333C30.8333 21.6912 34.1912 18.3333 38.3333 18.3333C42.4754 18.3333 45.8333 21.6912 45.8333 25.8333ZM4.1667 1.6667C2.78604 1.6667 1.6667 2.78604 1.6667 4.1667V6.6667H43.3334V4.1667C43.3334 2.78604 42.2141 1.6667 40.8334 1.6667H4.1667ZM26.6667 31.6667V40H4.1667C2.78604 40 1.6667 38.8807 1.6667 37.5V8.3333H43.3334V18.16C40.5181 16.3184 36.9195 16.1691 33.9614 17.7714C31.0033 19.3736 29.1623 22.4691 29.1667 25.8333V30H28.3334C27.4129 30 26.6667 30.7462 26.6667 31.6667ZM45.8333 33.3333H48.3333H48.3334V31.6667H28.3334V33.3334H30.8334C31.2937 33.3334 31.6667 33.7064 31.6667 34.1667C31.6667 34.627 31.2937 35 30.8334 35H28.3334V36.6667H30.8334C31.2937 36.6667 31.6667 37.0397 31.6667 37.5C31.6667 37.9603 31.2937 38.3333 30.8334 38.3333H28.3334V40H30.8334C31.2937 40 31.6667 40.373 31.6667 40.8333C31.6667 41.2936 31.2937 41.6666 30.8334 41.6666H28.3334V43.3333H30.8334C31.2937 43.3333 31.6667 43.7063 31.6667 44.1666C31.6667 44.6268 31.2937 44.9999 30.8334 44.9999H28.4167C28.8153 46.9386 30.5208 48.3307 32.5 48.3332H44.1667C46.1459 48.3308 47.8513 46.9386 48.25 44.9999H45.8333C45.373 44.9999 45 44.6269 45 44.1666C45 43.7064 45.373 43.3333 45.8333 43.3333H48.3333V41.6666H45.8333C45.373 41.6666 45 41.2936 45 40.8333C45 40.373 45.373 40 45.8333 40H48.3333V38.3332H45.8333C45.373 38.3332 45 37.9602 45 37.4999C45 37.0396 45.373 36.6666 45.8333 36.6666H48.3333V34.9999H45.8333C45.373 34.9999 45 34.6269 45 34.1666C45 33.7063 45.373 33.3333 45.8333 33.3333Z" fill="#00FFA5"/>
<path fill-rule="evenodd" clip-rule="evenodd" d="M37.6664 43.1111V41.1698C36.5188 40.7389 35.8302 39.4881 36.0363 38.2096C36.2424 36.9312 37.2833 35.9975 38.5 36C39.7167 35.9975 40.7576 36.9311 40.9637 38.2096C41.1698 39.4881 40.4812 40.7389 39.3336 41.1698V43.1111C39.3336 43.6021 38.9604 44 38.5 44C38.0397 44 37.6664 43.6021 37.6664 43.1111ZM39.3336 38.6667C39.3336 38.1758 38.9604 37.7778 38.5 37.7778C38.0397 37.7778 37.6664 38.1758 37.6664 38.6667C37.6664 39.1575 38.0396 39.5555 38.5 39.5555C38.9603 39.5555 39.3336 39.1576 39.3336 38.6667Z" fill="#00FFA5"/>
<path d="M14.1666 17C13.7064 17 13.3333 17.373 13.3333 17.8333V20.3333H6.66668V13.6666H9.99995C10.4602 13.6666 10.8332 13.2936 10.8332 12.8333C10.8332 12.373 10.4602 12 9.99995 12H6.66668C5.74618 12 5 12.7462 5 13.6667V20.3333C5 21.2538 5.74618 22 6.66668 22H13.3333C14.2538 22 15 21.2538 15 20.3333V17.8333C14.9999 17.373 14.6268 17 14.1666 17Z" fill="#00FFA5"/>
<path d="M9.31984 15.7562C9.01428 15.4245 8.52848 15.4292 8.22812 15.7668C7.92768 16.1044 7.92348 16.6502 8.21863 16.9935L9.77626 18.7436C9.92228 18.9077 10.1203 19 10.3269 19H10.3619C10.5804 18.989 10.7847 18.8754 10.925 18.6867L14.819 13.4364C14.9974 13.1963 15.0482 12.8676 14.9523 12.5739C14.8564 12.2803 14.6284 12.0665 14.3541 12.0129C14.0799 11.9594 13.8011 12.0744 13.6227 12.3145L10.2739 16.8298L9.31984 15.7562Z" fill="#00FFA5"/>
<path d="M14.1666 30.9999C13.7064 30.9999 13.3333 31.3729 13.3333 31.8331V34.3331H6.66668V27.6666H9.99995C10.4602 27.6666 10.8332 27.2934 10.8332 26.8333C10.8332 26.373 10.4602 26 9.99995 26H6.66668C5.74618 26 5 26.7462 5 27.6667V34.3333C5 35.2538 5.74618 36 6.66668 36H13.3333C14.2538 36 15 35.2538 15 34.3333V31.8333C14.9999 31.373 14.6268 30.9999 14.1666 30.9999Z" fill="#00FFA5"/>
<path d="M9.31984 29.7561C9.01428 29.4245 8.52848 29.4292 8.22812 29.7668C7.92768 30.1044 7.92348 30.6501 8.21863 30.9935L9.77626 32.7436C9.92228 32.9077 10.1203 33 10.3269 33H10.3619C10.5804 32.989 10.7847 32.8754 10.925 32.6867L14.819 27.4363C14.9974 27.1962 15.0482 26.8675 14.9523 26.5739C14.8564 26.2803 14.6284 26.0665 14.3541 26.0129C14.0799 25.9594 13.8011 26.0744 13.6227 26.3145L10.2739 30.8299L9.31984 29.7561Z" fill="#00FFA5"/>
<path d="M18.8 14H25.2C25.6419 14 26 13.5524 26 13.0001C26 12.4478 25.6419 12 25.2 12H18.8C18.3581 12 18 12.4476 18 12.9999C18 13.5522 18.3582 14 18.8 14Z" fill="#00FFA5"/>
<path d="M30 17C30 16.4477 29.6419 16 29.2 16H18.8C18.3581 16 18 16.4477 18 17C18 17.5523 18.3581 18 18.8 18H29.1999C29.6419 18 30 17.5523 30 17Z" fill="#00FFA5"/>
<path d="M25.2 27H18.8C18.3581 27 18 27.4478 18 28C18 28.5522 18.3581 29 18.8 29H25.2C25.6419 29 26 28.5523 26 28C26 27.4477 25.6419 27 25.2 27Z" fill="#00FFA5"/>
<path d="M24.2222 31H18.7778C18.3482 31 18 31.4477 18 32C18 32.5523 18.3482 33 18.7778 33H24.2222C24.6518 33 25 32.5523 25 32C25 31.4477 24.6518 31 24.2222 31Z" fill="#00FFA5"/>
</svg>
