<svg width="46" height="50" viewBox="0 0 46 50" fill="none" xmlns="http://www.w3.org/2000/svg">
<path fill-rule="evenodd" clip-rule="evenodd" d="M18.1951 40.5199H8.46767C7.09033 40.5199 5.96981 39.4027 5.96981 38.0293V35.302C6.18833 35.3527 6.41269 35.3809 6.64052 35.3809C6.74404 35.3809 6.84835 35.3755 6.95286 35.3647C7.12428 35.3469 7.29173 35.3142 7.45434 35.2688V38.0293C7.45434 38.5865 7.9089 39.0397 8.46767 39.0397H18.0002C18.4101 39.0397 18.7425 38.7084 18.7425 38.2996C18.7425 37.8908 18.4101 37.5595 18.0002 37.5595H8.93886V34.3025L8.94561 34.2946C8.94846 34.2914 8.95131 34.2881 8.954 34.2847C9.93191 33.0841 9.80948 31.345 8.71519 30.2884C9.19311 30.1098 9.63134 29.8073 9.97565 29.3846C10.9536 28.184 10.8311 26.4448 9.73684 25.3883C10.2148 25.2096 10.653 24.9072 10.9973 24.4844C11.4979 23.8698 11.7285 23.0975 11.6465 22.3099C11.5646 21.5225 11.18 20.8138 10.5635 20.3146L8.93876 18.999V4.4802H12.2254L12.2467 4.5471C12.494 5.3241 13.2094 5.84622 14.027 5.84622H19.7639C20.5815 5.84622 21.2969 5.3242 21.5443 4.547L21.5658 4.4802H24.5155V14.7508C24.5155 15.1596 24.8477 15.4909 25.2577 15.4909C25.6678 15.4909 26 15.1596 26 14.7508V4.01038C26 3.45324 25.5454 3 24.9868 3H21.3658C20.8357 3 20.3718 3.33857 20.2113 3.84243L20.1296 4.09929C20.0788 4.25886 19.932 4.36602 19.7641 4.36602H14.0272C13.8595 4.36602 13.7126 4.25886 13.6618 4.09939L13.5801 3.84243C13.4197 3.33857 12.9559 3 12.4256 3H8.46767C7.9089 3 7.45434 3.45333 7.45434 4.01038V17.801C7.01581 17.4752 6.50523 17.2795 5.96981 17.2284V9.69542C5.96981 9.28659 5.63748 8.95532 5.22755 8.95532C4.8201 8.95532 4.48964 9.28264 4.48568 9.68802C3.94057 9.36543 3.30865 9.2259 2.66665 9.29231C1.87678 9.37402 1.16609 9.75749 0.665508 10.3722C0.164926 10.9868 -0.0656698 11.7591 0.016177 12.5467C0.0981227 13.3341 0.482713 14.0429 1.09919 14.542L4.48529 17.2837V17.4644C4.05675 17.6514 3.67602 17.9382 3.37259 18.3108C2.87201 18.9254 2.64141 19.6977 2.72326 20.4853C2.796 21.1849 3.10824 21.8219 3.60912 22.3054C3.12111 22.4881 2.68822 22.7967 2.35084 23.2109C1.37274 24.4119 1.49536 26.1514 2.59024 27.208C2.11213 27.3863 1.6736 27.6881 1.32919 28.111C0.828509 28.7257 0.597912 29.498 0.679858 30.2855C0.761804 31.073 1.14639 31.7817 1.76287 32.2809L4.48519 34.4851V38.0292C4.48519 40.2187 6.27166 42 8.46757 42H18.195C18.6049 42 18.9372 41.6687 18.9372 41.2599C18.9372 40.8511 18.605 40.5199 18.1951 40.5199ZM2.03503 13.3928C1.72645 13.143 1.53386 12.7882 1.49278 12.3939C1.45181 11.9996 1.56721 11.613 1.81789 11.3052C2.06848 10.9975 2.42427 10.8056 2.81985 10.7645C3.21493 10.7235 3.60308 10.8386 3.91167 11.0887L4.48529 11.5532V15.3768L2.03503 13.3928ZM5.52703 18.7031C5.13145 18.7442 4.77566 18.9361 4.52507 19.2438C4.27448 19.5515 4.15899 19.9382 4.20006 20.3324C4.24113 20.7267 4.43372 21.0815 4.74231 21.3313L7.75134 23.7676C8.3886 24.2838 9.3278 24.1864 9.84521 23.5511C10.0958 23.2435 10.2112 22.8568 10.1702 22.4625C10.1292 22.0682 9.93656 21.7134 9.62798 21.4636L6.61894 19.0273C6.35114 18.8105 6.02365 18.695 5.6834 18.695C5.63144 18.695 5.57928 18.6977 5.52703 18.7031ZM3.50342 24.144C3.75401 23.8363 4.1098 23.6444 4.50538 23.6033C4.88443 23.5646 5.25585 23.6698 5.55791 23.8987L6.8154 24.9169C6.82308 24.9231 6.83099 24.9287 6.83889 24.9344C6.84566 24.9392 6.85242 24.944 6.85904 24.9492L8.60613 26.3638C9.24329 26.8797 9.34067 27.8163 8.82327 28.4515C8.30586 29.0867 7.36655 29.1839 6.72939 28.668L3.72046 26.2317C3.0834 25.7159 2.98602 24.7793 3.50342 24.144ZM2.48177 29.0442C2.23109 29.352 2.11569 29.7387 2.15666 30.1329C2.19764 30.5272 2.39023 30.8821 2.69901 31.1319L5.70794 33.5682C6.01652 33.8181 6.40438 33.9331 6.79976 33.8924C7.19524 33.8514 7.55103 33.6594 7.80171 33.3517C8.31912 32.7165 8.22174 31.7799 7.58458 31.264L5.83828 29.8501C5.83178 29.845 5.82511 29.8403 5.81845 29.8356C5.81011 29.8296 5.80178 29.8237 5.79375 29.8172L4.53052 28.7944C4.26429 28.5949 3.95086 28.4963 3.63861 28.4963C3.20533 28.4963 2.77551 28.6836 2.48177 29.0442Z" fill="#00FFA5"/>
<path d="M5.7276 7.09691C6.12943 7.09691 6.4552 6.77228 6.4552 6.37163V3.89127C6.4552 2.54544 7.55368 1.45056 8.90371 1.45056H25.0964C26.4464 1.45056 27.5448 2.54544 27.5448 3.89127V17.2747C27.5448 17.6754 27.8705 18 28.2724 18C28.6743 18 29 17.6754 29 17.2747V3.89127C29.0001 1.7456 27.2489 0 25.0964 0H8.90371C6.75119 0 5 1.7456 5 3.89127V6.37154C5 6.77218 5.32577 7.09691 5.7276 7.09691Z" fill="#00FFA5"/>
<path d="M45.811 48.8495L40.3979 43.246C40.1141 42.9522 39.6133 42.9165 39.2796 43.1663C38.9457 43.4161 38.9051 43.8567 39.189 44.1504L44.6021 49.7539C44.759 49.9164 44.9823 50 45.207 50C45.3887 50 45.5713 49.9454 45.7205 49.8337C46.0543 49.5839 46.0949 49.1432 45.811 48.8495Z" fill="#00FFA5"/>
<path d="M27.3014 46.7099C27.19 46.5592 27.0273 46.4586 26.8464 46.4282C24.3515 46.0106 22.3335 44.0073 21.825 41.4434L21.5606 40.1095C21.2613 38.6003 21.5022 37.0319 22.239 35.6933L25.7889 29.2434C26.2506 28.4046 26.1786 27.3707 25.6054 26.6092L22.2804 22.192C21.3076 20.8997 21.3564 19.0655 22.3963 17.8307L22.574 17.6196C22.669 17.5067 22.7872 17.4879 22.8491 17.4866C22.9127 17.4845 23.03 17.4996 23.1291 17.6085L26.3019 21.0948C26.5737 21.3936 27.0279 21.4073 27.3164 21.1259C27.6048 20.8443 27.6182 20.3739 27.3464 20.0752L24.1736 16.5889C23.8241 16.2047 23.3313 15.9894 22.8215 16.0004C22.3118 16.0106 21.8273 16.2446 21.4923 16.6424L21.3146 16.8535C19.8238 18.6237 19.754 21.2531 21.1485 23.1058L24.4735 27.5229C24.6876 27.8074 24.7146 28.1938 24.5421 28.5072L20.9921 34.9572C20.0826 36.6095 19.7853 38.5455 20.1547 40.4085L20.4192 41.7424C21.0271 44.8084 23.3838 47.2251 26.3307 47.8416L27.7128 49.7089C27.8541 49.8998 28.0672 50 28.2828 50C28.4351 50 28.5887 49.95 28.7189 49.8466C29.0335 49.5969 29.093 49.1303 28.8519 48.8046L27.3014 46.7099Z" fill="#00FFA5"/>
<path d="M36.9682 38.6025C36.8116 38.4172 36.7254 38.1812 36.7254 37.938V34.2035C36.7254 31.5873 35.7435 29.0982 33.9605 27.1944L30.2454 23.2278C29.9724 22.9362 29.5161 22.9229 29.2264 23.1975C28.9367 23.4723 28.9232 23.9314 29.1963 24.223L32.9114 28.1896C34.4412 29.8231 35.2838 31.9588 35.2838 34.2036V37.9381C35.2838 38.5251 35.4919 39.0948 35.8698 39.5422L37.7299 41.7444C37.8725 41.9131 38.0754 42 38.2795 42C38.4445 42 38.6103 41.9433 38.746 41.8274C39.0493 41.5678 39.0862 41.1101 38.8284 40.8049L36.9682 38.6025Z" fill="#00FFA5"/>
<path fill-rule="evenodd" clip-rule="evenodd" d="M14 11.5141C14 9.57633 15.4505 8 17.2335 8C19.0164 8 20.467 9.57633 20.4669 11.5143C20.4669 12.3111 20.2212 13.0465 19.8083 13.6366L20.7964 14.7103C21.0679 15.0053 21.0679 15.4836 20.7964 15.7787C20.6607 15.9263 20.4827 16 20.3048 16C20.1269 16 19.949 15.9263 19.8133 15.7788L18.7459 14.6188C18.2943 14.8796 17.7796 15.0281 17.2335 15.0281C15.4505 15.0281 14 13.4517 14 11.5141ZM17.2335 9.51105C16.2172 9.51105 15.3904 10.4096 15.3904 11.5141C15.3904 12.6185 16.2172 13.517 17.2335 13.517C18.2498 13.517 19.0766 12.6186 19.0766 11.5141C19.0766 10.4096 18.2498 9.51105 17.2335 9.51105Z" fill="#00FFA5"/>
<path d="M18.5869 33.4207H12.72C12.5989 33.4207 12.5003 33.317 12.5003 33.1894V29.8106C12.5003 29.683 12.5989 29.5793 12.72 29.5793H20.2499C20.6641 29.5793 21 29.2259 21 28.7897C21 28.3534 20.6641 28 20.2499 28H12.72C11.7716 28 11 28.8123 11 29.8106V33.1894C11 34.1877 11.7716 35 12.72 35H18.5869C19.0012 35 19.337 34.6466 19.337 34.2103C19.337 33.7741 19.0012 33.4207 18.5869 33.4207Z" fill="#00FFA5"/>
</svg>
