<svg width="55" height="50" viewBox="0 0 55 50" fill="none" xmlns="http://www.w3.org/2000/svg">
<path d="M54.667 36.0658L51.919 33.3281C51.4774 32.888 50.7645 32.8911 50.3266 33.3346C49.8885 33.7781 49.8916 34.4943 50.3331 34.9342L53.0809 37.6719C53.3005 37.8908 53.5872 38 53.8738 38C54.1635 38 54.4532 37.8884 54.6733 37.6654C55.1114 37.2219 55.1085 36.5057 54.667 36.0658Z" fill="#00FFA5"/>
<path d="M49.7074 30.2928C49.3171 29.9024 48.6845 29.9024 48.294 30.2928L48.2923 30.2945C47.902 30.6849 47.9029 31.3171 48.2932 31.7075C48.488 31.9025 48.7437 32 48.9993 32C49.2555 32 49.5119 31.9021 49.7073 31.7067C50.0976 31.3163 50.0976 30.6833 49.7074 30.2928Z" fill="#00FFA5"/>
<path fill-rule="evenodd" clip-rule="evenodd" d="M50.8123 24.9968L40.3564 35.428C37.446 38.3316 33.6105 40.0537 29.5138 40.3058L28.8211 40.9993C30.1824 41.7604 31.7415 42.105 33.3188 41.976L33.6605 41.9481C33.976 41.9223 34.287 42.0363 34.5108 42.2595L40.4226 48.1581C40.8436 48.5781 40.8436 49.2589 40.4226 49.6789C40.2122 49.8888 39.9364 49.9939 39.6605 49.9939C39.3848 49.9939 39.1089 49.8887 38.8984 49.6789L33.3381 44.1316C31.1802 44.2739 29.0579 43.7248 27.2533 42.5698L20.1488 49.6836C19.9384 49.8945 19.6618 50 19.3853 50C19.1101 50 18.8349 49.8954 18.6246 49.6864C18.2029 49.2672 18.2017 48.5864 18.6218 48.1657L28.2808 38.4938C28.4735 38.3007 28.7326 38.188 29.0053 38.1781C32.7159 38.0437 36.2053 36.5273 38.8309 33.9079L49.2868 23.4767C50.0301 22.7352 50.0301 21.5288 49.2868 20.7875C48.544 20.0464 47.3356 20.0463 46.5924 20.7865L45.2669 22.1088C45.0564 22.3188 44.7805 22.4238 44.5048 22.4238C44.229 22.4238 43.9531 22.3187 43.7427 22.1088C43.3218 21.6888 43.3218 21.008 43.7427 20.588L45.0672 19.2666L46.5152 17.8221C46.8753 17.463 47.0735 16.9854 47.0735 16.4776C47.0735 15.9696 46.8753 15.4922 46.5153 15.1331C46.1553 14.7738 45.6767 14.5761 45.1675 14.5761C44.6585 14.5761 44.1799 14.7738 43.8198 15.1331L41.0473 17.899C40.8369 18.109 40.561 18.214 40.2852 18.214C40.0095 18.214 39.7336 18.1089 39.5231 17.899C39.1022 17.479 39.1022 16.7981 39.5231 16.3782L42.2957 13.6123L43.3506 12.5597C44.0938 11.8183 44.0938 10.612 43.3506 9.87054C42.6074 9.12916 41.3982 9.12927 40.6552 9.87065L36.8277 13.6891C36.6172 13.8991 36.3413 14.0041 36.0656 14.0041C35.7898 14.0041 35.5139 13.899 35.3035 13.6891C34.8826 13.2691 34.8826 12.5882 35.3035 12.1683L39.131 8.34984L40.1859 7.29744C40.546 6.93836 40.7442 6.46081 40.7442 5.95294C40.7442 5.44497 40.546 4.96763 40.186 4.60844C39.8259 4.24915 39.3474 4.05145 38.8382 4.05145C38.329 4.05145 37.8506 4.24915 37.4905 4.60844L30.3357 11.7463C31.6439 13.3365 31.5543 15.6955 30.0663 17.18C29.2746 17.9699 28.2345 18.3649 27.1944 18.3649C27.1403 18.3649 27.0863 18.3631 27.0323 18.361C27.0344 18.4154 27.0363 18.4698 27.0363 18.5245C27.0363 19.6068 26.6137 20.6244 25.8467 21.3897C25.0549 22.1796 24.0147 22.5746 22.9747 22.5746C22.9206 22.5746 22.8666 22.5728 22.8126 22.5707C22.8148 22.6251 22.8166 22.6795 22.8166 22.7342C22.8166 23.8165 22.3941 24.8341 21.627 25.5994C20.8354 26.3892 19.7949 26.7842 18.755 26.7843C18.7004 26.7843 18.6458 26.7826 18.5911 26.7804C18.635 27.8718 18.2408 28.9777 17.4074 29.8091C16.6402 30.5745 15.6202 30.996 14.5354 30.996C13.8197 30.996 13.1331 30.8117 12.528 30.4673L1.83988 41.1301C1.62942 41.3401 1.35355 41.4451 1.07779 41.4451C0.802022 41.4451 0.52615 41.34 0.31569 41.1301C-0.10523 40.7101 -0.10523 40.0293 0.31569 39.6093L10.9016 29.0486L8.75134 26.9035C7.16777 25.3235 7.16777 22.7528 8.75134 21.173C9.29856 20.6272 9.97466 20.2573 10.7108 20.0895C10.0156 18.591 10.2864 16.7526 11.5232 15.5187C12.1243 14.9189 12.881 14.5314 13.7022 14.3914C13.5689 13.987 13.4985 13.5598 13.4985 13.1216C13.4985 12.0393 13.921 11.0217 14.6881 10.2564C15.3041 9.64198 16.0706 9.26763 16.8701 9.13121C16.4061 7.72392 16.733 6.11152 17.8529 4.99429C18.62 4.22905 19.64 3.80751 20.7249 3.80751C21.2687 3.80751 21.7962 3.91362 22.2837 4.11563C22.1007 3.59905 22.005 3.04968 22.005 2.48537V1.0753C22.005 0.481529 22.4877 0 23.0829 0H31.5466C33.5304 0 35.4435 0.83093 36.795 2.27993L36.899 2.39141C37.4875 2.07125 38.1499 1.90074 38.8388 1.90074C39.9237 1.90074 40.9437 2.32228 41.7108 3.08753C42.4779 3.85277 42.9004 4.87033 42.9004 5.95273C42.9004 6.39179 42.8298 6.81967 42.696 7.22487C43.4948 7.36162 44.2603 7.73575 44.8757 8.34962C45.995 9.4662 46.3222 11.0774 45.8594 12.4843C46.6815 12.6239 47.4389 13.0116 48.0406 13.6119C48.8076 14.3772 49.2302 15.3947 49.2302 16.4771C49.2302 17.0771 49.0998 17.6569 48.8534 18.1852C49.5718 18.3494 50.2538 18.7091 50.8122 19.2662C52.3959 20.8462 52.3959 23.4169 50.8123 24.9968ZM14.5355 28.8455C15.0445 28.8455 15.5231 28.6478 15.8832 28.2885C16.6263 27.547 16.6263 26.3407 15.8833 25.5993L12.9709 22.6939C12.611 22.3346 12.1323 22.1369 11.6232 22.1369C11.1141 22.1369 10.6355 22.3346 10.2754 22.6939C9.53229 23.4354 9.53229 24.6417 10.2754 25.3831L13.1878 28.2885C13.5477 28.6478 14.0263 28.8455 14.5355 28.8455ZM20.103 24.0786C19.3598 24.82 18.1504 24.82 17.4075 24.0786L14.4951 21.1731L13.047 19.7284C12.3038 18.987 12.3038 17.7807 13.047 17.0393C13.407 16.68 13.8857 16.4823 14.3946 16.4823C14.9038 16.4823 15.3824 16.68 15.7423 17.0393L20.1027 21.3894H20.1028C20.463 21.7487 20.6611 22.2261 20.6611 22.734C20.6611 23.2419 20.463 23.7194 20.103 24.0786ZM21.6271 19.8688C22.3701 20.6102 23.5795 20.6101 24.3227 19.8688C24.6827 19.5097 24.8809 19.0322 24.8807 18.5242C24.8807 18.0162 24.6825 17.5389 24.3226 17.1797H24.3225L21.3745 14.2387L18.9063 11.7763C18.5349 11.4063 18.0473 11.2212 17.5595 11.2212C17.0716 11.2212 16.5834 11.4065 16.2118 11.7772C15.8517 12.1363 15.6535 12.6138 15.6535 13.1217C15.6535 13.6297 15.8517 14.107 16.2117 14.4662L21.6271 19.8688ZM28.5425 15.659C27.7993 16.4004 26.5901 16.4004 25.847 15.659L20.4316 10.2564L20.4298 10.2547L19.3766 9.20399C18.6335 8.4625 18.6335 7.25626 19.3766 6.51478C19.7482 6.14398 20.2363 5.95864 20.7244 5.95864C21.2125 5.95864 21.7006 6.14398 22.0721 6.51478L28.5422 12.9697C28.9024 13.3289 29.1006 13.8063 29.1006 14.3142C29.1007 14.8223 28.9026 15.2999 28.5425 15.659ZM25.8654 7.25788L28.8259 10.2113L35.2607 3.79192L35.2168 3.74494C34.2715 2.73157 32.9337 2.15049 31.5462 2.15049H24.1604V2.48527C24.1604 3.2174 24.4467 3.9048 24.9668 4.42127C25.4836 4.93441 26.1691 5.21662 26.8979 5.21662H26.9113L29.8691 5.20275H29.8743C30.4672 5.20275 30.9492 5.68084 30.952 6.27299C30.9548 6.86687 30.4744 7.35055 29.8793 7.35334L26.9214 7.36721H26.8976C26.5463 7.36732 26.2011 7.32937 25.8654 7.25788Z" fill="#00FFA5"/>
</svg>
