<svg width="50" height="50" viewBox="0 0 50 50" fill="none" xmlns="http://www.w3.org/2000/svg">
<path fill-rule="evenodd" clip-rule="evenodd" d="M41.0411 6.34158H46.338C48.3573 6.34158 50.0001 7.98444 50 10.0037V38.2991C50 40.3184 48.3572 41.9612 46.3379 41.9612H31.6945L34.0903 48.535H35.0425C35.447 48.535 35.775 48.8629 35.775 49.2674C35.775 49.6719 35.447 49.9998 35.0425 49.9998H33.5822L33.5778 50L33.5754 49.9998H16.4246L16.4222 50L16.4178 49.9998H14.9575C14.553 49.9998 14.225 49.6719 14.225 49.2674C14.225 48.8629 14.553 48.535 14.9575 48.535H15.9097L18.3055 41.9611H3.66212C1.64278 41.9611 0 40.3183 0 38.299V10.0037C0 7.98434 1.64278 6.34158 3.66212 6.34158H6.85841C7.2629 6.34158 7.59084 6.66951 7.59084 7.074C7.59084 7.47849 7.2629 7.80641 6.85841 7.80641H3.66212C2.45049 7.80641 1.46485 8.79206 1.46485 10.0037V34.6369H2.92969V10.7849C2.92969 9.95025 3.6087 9.27125 4.44337 9.27125H8.959V3.6621C8.959 1.64277 10.6018 0 12.6211 0H37.379C39.3983 0 41.0411 1.64277 41.0411 3.6621V6.34158ZM20 3.33333C19.5398 3.33333 19.1667 3.70644 19.1667 4.16667C19.1667 4.62689 19.5398 5 20 5C20.4602 5 20.8333 4.62689 20.8333 4.16667C20.8333 3.70644 20.4602 3.33333 20 3.33333ZM19.2851 19.2477L22.9494 15.2291C23.2279 14.9236 23.6794 14.9236 23.9578 15.2291C24.2363 15.5344 24.2363 16.0296 23.9578 16.335L20.2599 20.3905C19.9996 20.6761 19.6533 20.8333 19.2851 20.8333C18.9168 20.8333 18.5707 20.676 18.3102 20.3904L16.8755 18.8169C16.597 18.5116 16.597 18.0164 16.8755 17.711C17.1539 17.4056 17.6054 17.4055 17.8839 17.711L19.2851 19.2477ZM26.1472 28.3333H13.0195C12.2735 28.3333 11.6667 28.9047 11.6667 29.6069V32.0597C11.6667 32.762 12.2735 33.3333 13.0195 33.3333H26.1472C26.8931 33.3333 27.5 32.762 27.5 32.0597V29.6069C27.5 28.9047 26.8931 28.3333 26.1472 28.3333ZM25.8333 31.6667H13.3333V29.1667H25.8333V31.6667ZM13.3333 4.16667C13.3333 3.70644 13.7064 3.33333 14.1667 3.33333C14.6269 3.33333 15 3.70644 15 4.16667C15 4.62689 14.6269 5 14.1667 5C13.7064 5 13.3333 4.62689 13.3333 4.16667ZM17.5 3.33333C17.0398 3.33333 16.6667 3.70644 16.6667 4.16667C16.6667 4.62689 17.0398 5 17.5 5C17.9602 5 18.3333 4.62689 18.3333 4.16667C18.3333 3.70644 17.9602 3.33333 17.5 3.33333ZM26.7678 39.1667H24.0656C23.6612 39.1667 23.3333 38.7936 23.3333 38.3333C23.3333 37.8731 23.6612 37.5 24.0656 37.5H26.7678C27.1721 37.5 27.5 37.8731 27.5 38.3333C27.5 38.7936 27.1721 39.1667 26.7678 39.1667ZM37.5816 12.5H30.7518C30.3366 12.5 30 12.8731 30 13.3333C30 13.7936 30.3366 14.1667 30.7518 14.1667H37.5816C37.9967 14.1667 38.3333 13.7936 38.3333 13.3333C38.3333 12.8731 37.9967 12.5 37.5816 12.5ZM11.6667 16.6667C11.6667 12.0716 15.405 8.33333 20 8.33333C24.595 8.33333 28.3333 12.0717 28.3333 16.6667C28.3333 21.2616 24.5951 25 20 25C15.4049 25 11.6667 21.2617 11.6667 16.6667ZM20 23.3333C16.324 23.3333 13.3333 20.3426 13.3333 16.6667C13.3333 12.9907 16.3239 10 20 10C23.6761 10 26.6667 12.9906 26.6667 16.6667C26.6667 20.3427 23.676 23.3333 20 23.3333ZM10.8333 3.91946C10.8333 2.67722 11.8195 1.66667 13.0317 1.66667H37.8017C39.0139 1.66667 40 2.67722 40 3.91946V6.66667H10.8333V3.91946ZM39.8352 7.5H10.8333V34.1667H45.8333V10.4603C45.8333 10.4335 45.8116 10.4118 45.7848 10.4118H41.2924V31.9828C41.2924 32.3848 40.9662 32.7108 40.5638 32.7108C40.1614 32.7108 39.8352 32.3848 39.8352 31.9828V7.5ZM5 10.8827C5 10.8555 5.01997 10.8333 5.04457 10.8333H9.16667V35H5V10.8827ZM17.5 48.3333H32.5L30.1141 41.6667H19.8858L17.5 48.3333ZM48.3333 37.9167C48.3333 39.0655 47.3561 40 46.1549 40H3.84509C2.64386 40 1.66667 39.0655 1.66667 37.9167V35.8333H48.3333V37.9167ZM46.8673 34.1667H48.3333V9.68384C48.3333 8.47962 47.3469 7.5 46.1343 7.5H40.8333V8.95589H45.3525C46.1878 8.95589 46.8673 9.63074 46.8673 10.4603V34.1667ZM37.5816 9.16667H30.7518C30.3366 9.16667 30 9.53978 30 10C30 10.4602 30.3366 10.8333 30.7518 10.8333H37.5816C37.9967 10.8333 38.3333 10.4602 38.3333 10C38.3333 9.53978 37.9967 9.16667 37.5816 9.16667ZM30.7518 31.6667H37.5816C37.9967 31.6667 38.3333 32.0398 38.3333 32.5C38.3333 32.9602 37.9967 33.3333 37.5816 33.3333H30.7518C30.3366 33.3333 30 32.9602 30 32.5C30 32.0398 30.3366 31.6667 30.7518 31.6667ZM37.5816 27.5H30.7518C30.3366 27.5 30 27.8731 30 28.3333C30 28.7936 30.3366 29.1667 30.7518 29.1667H37.5816C37.9967 29.1667 38.3333 28.7936 38.3333 28.3333C38.3333 27.8731 37.9967 27.5 37.5816 27.5ZM34.2943 16.6667H30.7057C30.316 16.6667 30 16.2936 30 15.8333C30 15.3731 30.316 15 30.7057 15H34.2943C34.684 15 35 15.3731 35 15.8333C35 16.2936 34.684 16.6667 34.2943 16.6667Z" fill="#00FFA5"/>
</svg>
