<svg width="126" height="49" viewBox="0 0 126 49" fill="none" xmlns="http://www.w3.org/2000/svg">
<path fill-rule="evenodd" clip-rule="evenodd" d="M106.629 13H101.27C101.27 18.3603 104.5 23.3173 108.971 26.8471H7V32.1529H108.814C104.419 35.6356 101.27 40.5422 101.27 46H106.629C106.629 38.6726 115.784 32.1529 123 32.1529V26.8471C115.35 26.8471 106.629 19.4705 106.629 13Z" fill="#00FFA5"/>
<path fill-rule="evenodd" clip-rule="evenodd" d="M29.5938 13.0412C29.5938 15.6467 27.5225 16.1938 25.7855 16.1938H22.5235V9.87462H25.8916C28.2791 9.87462 29.5938 10.9997 29.5938 13.0412ZM34.1628 12.9842C34.1628 8.67583 31.1214 6 26.2258 6H18V28H22.5235V19.9397H25.8854L29.8963 28H35L30.3979 19.06C32.7089 17.9913 34.1628 15.6842 34.1628 12.9842Z" fill="white"/>
<path fill-rule="evenodd" clip-rule="evenodd" d="M46.7481 10.1003C48.9625 10.1003 50.4425 11.6255 50.5201 13.9853L50.5416 14.6383H55L54.9912 13.9543C54.9265 9.04787 51.7796 6 46.7778 6C41.2817 6 38 9.58013 38 15.5767V19.4233C38 25.4199 41.2817 29 46.7778 29C51.6906 29 54.9912 25.9211 54.9912 21.3392V20.6646H50.5349L50.5201 21.3237C50.4695 23.5627 49.065 24.8991 46.763 24.8991C43.9148 24.8991 42.5305 23.108 42.5305 19.4233V15.5767C42.5305 11.8913 43.9101 10.1003 46.7481 10.1003Z" fill="white"/>
<path fill-rule="evenodd" clip-rule="evenodd" d="M71.2827 21.3022C71.2827 22.5446 70.8258 24.1966 66.8736 24.1966H63.5485V18.4797H66.7962C71.2827 18.4797 71.2827 20.6036 71.2827 21.3022ZM66.4272 14.805H63.5485V9.77528H66.7809C69.1043 9.77528 70.2824 10.6288 70.2824 12.3116C70.2824 14.3725 68.1864 14.805 66.4272 14.805ZM72.3443 16.2799C73.906 15.3695 74.8923 13.7115 74.8923 11.7819C74.8923 8.21515 72.0848 6 67.5656 6H59V28H67.673C72.8095 28 76 25.5214 76 21.5315C76 19.1059 74.568 17.1395 72.3443 16.2799Z" fill="white"/>
<path fill-rule="evenodd" clip-rule="evenodd" d="M93 9.93228V6H80V9.93228H84.3103V24.0677H80V28H93V24.0677H88.6897V9.93228H93Z" fill="white"/>
<path fill-rule="evenodd" clip-rule="evenodd" d="M19.0805 34.9973C19.0805 35.7 19.6912 36.1117 21.7192 36.1117C23.3326 36.1117 23.9272 35.8048 23.9272 35.2393C23.9272 34.6341 23.5434 34.5366 21.4839 34.4074C19.1744 34.2701 18.2192 33.883 18.2192 32.6387C18.2192 31.4037 19.4797 31 21.4376 31C23.4811 31 24.7577 31.6298 24.7654 32.9138H23.6926C23.6926 32.1787 23.0189 31.8883 21.3039 31.8883C19.6989 31.8883 19.292 32.1627 19.292 32.6878C19.292 33.2367 19.6989 33.3818 21.5238 33.5111C23.6611 33.6649 25 33.7696 25 35.183C25 36.6606 23.5434 37 21.7275 37C19.4797 37 18.0778 36.5154 18 34.9973H19.0805Z" fill="white"/>
<path fill-rule="evenodd" clip-rule="evenodd" d="M32.9403 33.996C32.9403 32.5345 32.0425 31.9207 30.5041 31.9207C28.9644 31.9207 28.0673 32.5265 28.0673 33.996C28.0673 35.4655 28.9721 36.0793 30.5041 36.0793C32.0349 36.0793 32.9403 35.4576 32.9403 33.996ZM27 33.996C27 32.1712 28.1289 31 30.5041 31C32.8705 31 34 32.1792 34 33.996C34 35.8129 32.8705 37 30.5041 37C28.1289 37 27 35.8208 27 33.996Z" fill="white"/>
<path fill-rule="evenodd" clip-rule="evenodd" d="M37.1502 36.027H42V37H36V31H37.1502V36.027Z" fill="white"/>
<path fill-rule="evenodd" clip-rule="evenodd" d="M50 33.9959C50 36.0123 48.9416 37 46.5003 37C44.0499 37 43 36.0211 43 33.9959V31H44.0186V33.9796C44.0186 34.9087 44.2412 36.0538 46.5003 36.0538C48.7666 36.0538 48.9899 34.9005 48.9899 33.9796V31H50V33.9959Z" fill="white"/>
<path fill-rule="evenodd" clip-rule="evenodd" d="M57 31.9731H54.0208V37H52.9872V31.9731H50V31H57V31.9731Z" fill="white"/>
<mask id="mask0" mask-type="alpha" maskUnits="userSpaceOnUse" x="0" y="0" width="126" height="49">
<path fill-rule="evenodd" clip-rule="evenodd" d="M0 49H126V0H0V49Z" fill="white"/>
</mask>
<g mask="url(#mask0)">
<path fill-rule="evenodd" clip-rule="evenodd" d="M60 37H61V31H60V37Z" fill="white"/>
<path fill-rule="evenodd" clip-rule="evenodd" d="M67.9403 33.996C67.9403 32.5345 67.0425 31.9207 65.5035 31.9207C63.9644 31.9207 63.0673 32.5265 63.0673 33.996C63.0673 35.4655 63.9721 36.0793 65.5035 36.0793C67.0356 36.0793 67.9403 35.4576 67.9403 33.996ZM62 33.996C62 32.1712 63.1295 31 65.5035 31C67.8711 31 69 32.1792 69 33.996C69 35.8129 67.8711 37 65.5035 37C63.1295 37 62 35.8208 62 33.996Z" fill="white"/>
<path fill-rule="evenodd" clip-rule="evenodd" d="M76.9756 31H78V37H76.5356L72.0237 32.0418V37H71V31H72.4637L76.9756 35.9596V31Z" fill="white"/>
<path fill-rule="evenodd" clip-rule="evenodd" d="M81.0804 34.9973C81.0804 35.7 81.6917 36.1117 83.7195 36.1117C85.3328 36.1117 85.9279 35.8048 85.9279 35.2393C85.9279 34.6341 85.5442 34.5366 83.4849 34.4074C81.1743 34.2701 80.2192 33.883 80.2192 32.6387C80.2192 31.4037 81.4802 31 83.4373 31C85.4812 31 86.757 31.6298 86.7654 32.9138H85.6927C85.6927 32.1787 85.0191 31.8883 83.3043 31.8883C81.6994 31.8883 81.2919 32.1627 81.2919 32.6878C81.2919 33.2367 81.6994 33.3818 83.5235 33.5111C85.6612 33.6649 87 33.7696 87 35.183C87 36.6606 85.5442 37 83.7272 37C81.4802 37 80.0784 36.5154 80 34.9973H81.0804Z" fill="white"/>
</g>
</svg>
