<svg width="214" height="89" viewBox="0 0 214 89" fill="none" xmlns="http://www.w3.org/2000/svg">
<path d="M172.93 27.61H164.93C164.93 35.69 169.75 43.17 176.43 48.49H24.21V56.49H176.21C169.65 61.74 164.95 69.14 164.95 77.37H172.95C172.95 66.32 186.62 56.49 197.39 56.49V48.49C186 48.49 172.93 37.37 172.93 27.61Z" fill="#5877F9"/>
<path d="M64.1401 28.43C64.1401 22 59.7301 18 52.6201 18H40.6801V50.83H47.2501V38.83H52.1301L57.9501 50.83H65.3601L58.6801 37.49C60.3615 36.6604 61.7696 35.3658 62.7374 33.7599C63.7052 32.1541 64.192 30.3042 64.1401 28.43ZM57.5101 28.51C57.5101 32.4 54.5101 33.22 51.9801 33.22H47.2501V23.79H52.1401C55.6001 23.79 57.5101 25.47 57.5101 28.51Z" fill="white"/>
<path d="M83.7801 23.45C87.0601 23.45 89.2601 25.71 89.3701 29.21V30.21H96.0001V29.21C95.9001 21.94 91.2301 17.42 83.8101 17.42C75.6601 17.42 70.8101 22.73 70.8101 31.62V37.32C70.8101 46.21 75.6701 51.52 83.8101 51.52C91.1101 51.47 96.0001 46.9 96.0001 40.11V39.11H89.4001V40.11C89.3301 43.43 87.2501 45.41 83.8301 45.41C79.6101 45.41 77.5601 42.75 77.5601 37.29V31.59C77.5301 26.1 79.5701 23.45 83.7801 23.45Z" fill="white"/>
<path d="M122.07 33.34C123.209 32.637 124.146 31.6496 124.787 30.4748C125.429 29.3 125.754 27.9784 125.73 26.64C125.73 21.32 121.73 18.01 115.22 18.01H102.94V50.83H115.38C122.74 50.83 127.31 47.13 127.31 41.18C127.342 39.4943 126.857 37.8393 125.92 36.4375C124.984 35.0358 123.64 33.9548 122.07 33.34ZM113.59 31.14H109.46V23.64H114.1C117.43 23.64 119.1 24.92 119.1 27.43C119.12 30.5 116.11 31.14 113.59 31.14ZM120.59 40.84C120.59 42.69 119.94 45.15 114.27 45.15H109.5V36.63H114.16C120.55 36.63 120.55 39.79 120.55 40.84H120.59Z" fill="white"/>
<path d="M151.41 23.88V18.01H131.86V23.88H138.34V44.96H131.86V50.83H151.41V44.96H144.93V23.88H151.41Z" fill="white"/>
<path d="M52.07 64.84L51 62.94H44.57L43.47 64.84H41.64L46.75 56H48.75L53.87 64.82L52.07 64.84ZM45.36 61.55H50.18L47.77 57.35L45.36 61.55Z" fill="white" stroke="black" stroke-width="0.1" stroke-miterlimit="10"/>
<path d="M56.9999 62C56.9999 63.09 57.9999 63.73 61.2299 63.73C63.8199 63.73 64.7699 63.26 64.7699 62.38C64.7699 61.5 64.1599 61.28 60.8599 61.08C57.1499 60.87 55.6199 60.27 55.6199 58.33C55.6199 56.39 57.6199 55.78 60.7799 55.78C63.9399 55.78 66.0999 56.78 66.1199 58.78H64.3499C64.3499 57.64 63.2699 57.19 60.5199 57.19C57.9399 57.19 57.2899 57.61 57.2899 58.43C57.2899 59.25 57.9399 59.51 60.8699 59.71C64.2999 59.95 66.4399 60.11 66.4399 62.31C66.4399 64.51 64.1099 65.14 61.1899 65.14C57.5899 65.14 55.3399 64.38 55.1899 62.02L56.9999 62Z" fill="white" stroke="black" stroke-width="0.1" stroke-miterlimit="10"/>
<path d="M70.25 62C70.25 63.09 71.25 63.73 74.48 63.73C77.07 63.73 78.02 63.26 78.02 62.38C78.02 61.5 77.41 61.28 74.11 61.08C70.4 60.87 68.87 60.27 68.87 58.33C68.87 56.39 70.87 55.78 74.03 55.78C77.19 55.78 79.36 56.78 79.37 58.78H77.65C77.65 57.64 76.57 57.19 73.82 57.19C71.24 57.19 70.59 57.61 70.59 58.43C70.59 59.25 71.24 59.51 74.17 59.71C77.6 59.95 79.74 60.11 79.74 62.31C79.74 64.51 77.41 65.14 74.49 65.14C70.89 65.14 68.64 64.38 68.49 62.02L70.25 62Z" fill="white" stroke="black" stroke-width="0.1" stroke-miterlimit="10"/>
<path d="M83.8 56V64.82H82.2V56H83.8Z" fill="white" stroke="black" stroke-width="0.1" stroke-miterlimit="10"/>
<path d="M87.87 62C87.87 63.09 88.87 63.73 92.11 63.73C94.69 63.73 95.65 63.26 95.65 62.38C95.65 61.5 95.03 61.28 91.73 61.08C88.02 60.87 86.49 60.27 86.49 58.33C86.49 56.39 88.49 55.78 91.65 55.78C94.81 55.78 96.98 56.78 96.99 58.78H95.27C95.27 57.64 94.19 57.19 91.44 57.19C88.87 57.19 88.21 57.61 88.21 58.43C88.21 59.25 88.87 59.51 91.79 59.71C95.22 59.95 97.37 60.11 97.37 62.31C97.37 64.51 95 65.1 92.12 65.1C88.51 65.1 86.27 64.34 86.12 61.98L87.87 62Z" fill="white" stroke="black" stroke-width="0.1" stroke-miterlimit="10"/>
<path d="M109.66 57.45H105.07V64.84H103.47V57.45H98.86V56H109.66V57.45Z" fill="white" stroke="black" stroke-width="0.1" stroke-miterlimit="10"/>
<path d="M119.08 64.84L118 62.94H111.58L110.49 64.84H108.66L113.76 56H115.76L120.87 64.82L119.08 64.84ZM112.37 61.55H117.19L114.78 57.35L112.37 61.55Z" fill="white" stroke="black" stroke-width="0.1" stroke-miterlimit="10"/>
<path d="M132.38 56H134V64.82H131.7L124.62 57.53V64.82H123V56H125.3L132.38 63.29V56Z" fill="white" stroke="black" stroke-width="0.1" stroke-miterlimit="10"/>
<path d="M147.13 57.45H142.53V64.84H140.94V57.45H136.33V56H147.13V57.45Z" fill="white" stroke="black" stroke-width="0.1" stroke-miterlimit="10"/>
</svg>
