<svg width="214" height="89" viewBox="0 0 214 89" fill="none" xmlns="http://www.w3.org/2000/svg">
<path d="M172.93 27.61H164.93C164.93 35.69 169.75 43.17 176.43 48.49H24.21V56.49H176.21C169.65 61.74 164.95 69.14 164.95 77.37H172.95C172.95 66.32 186.62 56.49 197.39 56.49V48.49C186 48.49 172.93 37.37 172.93 27.61Z" fill="#B478F9"/>
<path d="M64.14 28.43C64.14 22 59.73 18 52.62 18H40.68V50.83H47.25V38.83H52.13L57.95 50.83H65.36L58.68 37.49C60.3614 36.6604 61.7696 35.3658 62.7374 33.7599C63.7051 32.1541 64.1919 30.3042 64.14 28.43ZM57.51 28.51C57.51 32.4 54.51 33.22 51.98 33.22H47.25V23.79H52.14C55.6 23.79 57.51 25.47 57.51 28.51Z" fill="white"/>
<path d="M83.78 23.45C87.06 23.45 89.26 25.71 89.37 29.21V30.21H96V29.21C95.9 21.94 91.23 17.42 83.81 17.42C75.66 17.42 70.81 22.73 70.81 31.62V37.32C70.81 46.21 75.67 51.52 83.81 51.52C91.11 51.47 96 46.9 96 40.11V39.11H89.4V40.11C89.33 43.43 87.25 45.41 83.83 45.41C79.61 45.41 77.56 42.75 77.56 37.29V31.59C77.53 26.1 79.57 23.45 83.78 23.45Z" fill="white"/>
<path d="M122.07 33.34C123.209 32.637 124.146 31.6496 124.788 30.4748C125.429 29.3 125.754 27.9784 125.73 26.64C125.73 21.32 121.73 18.01 115.22 18.01H102.94V50.83H115.38C122.74 50.83 127.31 47.13 127.31 41.18C127.342 39.4943 126.857 37.8393 125.921 36.4375C124.984 35.0358 123.64 33.9548 122.07 33.34ZM113.59 31.14H109.46V23.64H114.1C117.43 23.64 119.1 24.92 119.1 27.43C119.12 30.5 116.11 31.14 113.59 31.14ZM120.59 40.84C120.59 42.69 119.94 45.15 114.27 45.15H109.5V36.63H114.16C120.55 36.63 120.55 39.79 120.55 40.84H120.59Z" fill="white"/>
<path d="M151.41 23.88V18.01H131.86V23.88H138.34V44.96H131.86V50.83H151.41V44.96H144.93V23.88H151.41Z" fill="white"/>
<path d="M51.06 57.45H43.37V60.45H50.3V61.88H43.37V64.88H41.76V56H51.06V57.45Z" fill="white" stroke="black" stroke-width="0.1" stroke-miterlimit="10"/>
<path d="M63.4 62.6V64.84H61.81V63C61.81 62.1 61.58 61.88 60.58 61.88H55.12V64.88H53.51V56H60.1C62.16 56 63.52 56.76 63.52 58.66C63.5663 59.1548 63.4498 59.6511 63.188 60.0735C62.9263 60.4959 62.5337 60.8213 62.07 61C62.2625 61.0176 62.4495 61.0729 62.6206 61.1629C62.7916 61.2528 62.9432 61.3756 63.0668 61.5242C63.1903 61.6728 63.2833 61.8443 63.3405 62.0289C63.3977 62.2135 63.4179 62.4076 63.4 62.6ZM55.12 57.43V60.43H59.69C60.6 60.43 61.8 60.43 61.8 58.91C61.8 57.39 60.6 57.4 59.69 57.4L55.12 57.43Z" fill="white" stroke="black" stroke-width="0.1" stroke-miterlimit="10"/>
<path d="M75.5 57.42H67.81V59.73H75.25V61.13H67.81V63.45H75.5V64.84H66.21V56H75.5V57.42Z" fill="white" stroke="black" stroke-width="0.1" stroke-miterlimit="10"/>
<path d="M87.37 57.42H79.68V59.73H87.12V61.13H79.68V63.45H87.37V64.84H78.08V56H87.37V57.42Z" fill="white" stroke="black" stroke-width="0.1" stroke-miterlimit="10"/>
<path d="M52.07 69H53.89L48.78 77.82H46.78L41.64 69H43.47L47.77 76.49L52.07 69Z" fill="white" stroke="black" stroke-width="0.1" stroke-miterlimit="10"/>
<path d="M57.6 69V77.82H56V69H57.6Z" fill="white" stroke="black" stroke-width="0.1" stroke-miterlimit="10"/>
<path d="M61.67 75C61.67 76.09 62.67 76.73 65.9 76.73C68.49 76.73 69.44 76.26 69.44 75.38C69.44 74.5 68.83 74.28 65.53 74.08C61.82 73.87 60.29 73.27 60.29 71.33C60.29 69.39 62.29 68.78 65.45 68.78C68.61 68.78 70.78 69.78 70.79 71.78H69.07C69.07 70.64 67.99 70.19 65.24 70.19C62.66 70.19 62.01 70.61 62.01 71.43C62.01 72.25 62.66 72.51 65.59 72.71C69.02 72.95 71.17 73.11 71.17 75.31C71.17 77.51 68.83 78.14 65.92 78.14C62.31 78.14 60.06 77.38 59.92 75.02L61.67 75Z" fill="white" stroke="black" stroke-width="0.1" stroke-miterlimit="10"/>
<path d="M83.05 77.84L82 75.94H75.54L74.45 77.84H72.61L77.72 69H79.72L84.83 77.82L83.05 77.84ZM76.33 74.55H81.15L78.74 70.35L76.33 74.55Z" fill="white" stroke="black" stroke-width="0.1" stroke-miterlimit="10"/>
<path d="M107.06 77.84H105.45V70.49L101 77.84H99.51L95 70.49V77.84H93.4V69H96L100.3 76L104.58 69H107.1L107.06 77.84Z" fill="white" stroke="black" stroke-width="0.1" stroke-miterlimit="10"/>
<path d="M119.58 77.84L118.49 75.94H112.08L110.98 77.84H109.15L114.26 69H116.26L121.38 77.82L119.58 77.84ZM112.87 74.55H117.69L115.28 70.35L112.87 74.55Z" fill="white" stroke="black" stroke-width="0.1" stroke-miterlimit="10"/>
<path d="M133.74 72.18C133.74 74.18 132.37 75.33 130.34 75.33H125.11V77.84H123.51V69H130.34C130.779 68.9521 131.224 68.9997 131.643 69.1394C132.063 69.2792 132.447 69.5078 132.77 69.8098C133.093 70.1117 133.346 70.4798 133.514 70.8889C133.681 71.2979 133.758 71.7384 133.74 72.18ZM129.74 73.9C130.64 73.9 132.05 73.9 132.05 72.18C132.05 70.46 130.64 70.45 129.74 70.45H125.15V73.9H129.74Z" fill="white" stroke="black" stroke-width="0.1" stroke-miterlimit="10"/>
</svg>
