<svg width="214" height="89" viewBox="0 0 214 89" fill="none" xmlns="http://www.w3.org/2000/svg">
<path d="M172.93 27.61H164.93C164.93 35.69 169.75 43.17 176.43 48.49H24.21V56.49H176.21C169.65 61.74 164.95 69.14 164.95 77.37H172.95C172.95 66.32 186.62 56.49 197.39 56.49V48.49C186 48.49 172.93 37.37 172.93 27.61Z" fill="#59C2FC"/>
<path d="M64.1401 28.43C64.1401 22 59.7301 18 52.6201 18H40.6801V50.83H47.2501V38.83H52.1301L57.9501 50.83H65.3601L58.6801 37.49C60.3615 36.6604 61.7696 35.3658 62.7374 33.7599C63.7052 32.1541 64.192 30.3042 64.1401 28.43ZM57.5101 28.51C57.5101 32.4 54.5101 33.22 51.9801 33.22H47.2501V23.79H52.1401C55.6001 23.79 57.5101 25.47 57.5101 28.51Z" fill="white"/>
<path d="M83.7801 23.45C87.0601 23.45 89.2601 25.71 89.3701 29.21V30.21H96.0001V29.21C95.9001 21.94 91.2301 17.42 83.8101 17.42C75.6601 17.42 70.8101 22.73 70.8101 31.62V37.32C70.8101 46.21 75.6701 51.52 83.8101 51.52C91.1101 51.47 96.0001 46.9 96.0001 40.11V39.11H89.4001V40.11C89.3301 43.43 87.2501 45.41 83.8301 45.41C79.6101 45.41 77.5601 42.75 77.5601 37.29V31.59C77.5301 26.1 79.5701 23.45 83.7801 23.45Z" fill="white"/>
<path d="M122.07 33.34C123.209 32.637 124.146 31.6496 124.787 30.4748C125.429 29.3 125.754 27.9784 125.73 26.64C125.73 21.32 121.73 18.01 115.22 18.01H102.94V50.83H115.38C122.74 50.83 127.31 47.13 127.31 41.18C127.342 39.4943 126.857 37.8393 125.92 36.4375C124.984 35.0358 123.64 33.9548 122.07 33.34ZM113.59 31.14H109.46V23.64H114.1C117.43 23.64 119.1 24.92 119.1 27.43C119.12 30.5 116.11 31.14 113.59 31.14ZM120.59 40.84C120.59 42.69 119.94 45.15 114.27 45.15H109.5V36.63H114.16C120.55 36.63 120.55 39.79 120.55 40.84H120.59Z" fill="white"/>
<path d="M151.41 23.88V18.01H131.86V23.88H138.34V44.96H131.86V50.83H151.41V44.96H144.93V23.88H151.41Z" fill="white"/>
<path d="M43.37 63.41H50.15V64.84H41.76V56H43.37V63.41Z" fill="white" stroke="black" stroke-width="0.1" stroke-miterlimit="10"/>
<path d="M62.91 64.84L61.82 62.94H55.41L54.31 64.84H52.48L57.59 56H59.59L64.71 64.82L62.91 64.84ZM56.2 61.55H61L58.59 57.35L56.2 61.55Z" fill="white" stroke="black" stroke-width="0.1" stroke-miterlimit="10"/>
<path d="M76.22 56H77.82V64.82H75.53L68.44 57.53V64.82H66.84V56H69.13L76.22 63.29V56Z" fill="white" stroke="black" stroke-width="0.1" stroke-miterlimit="10"/>
<path d="M91.28 60.44C91.329 61.025 91.2509 61.6138 91.051 62.1658C90.8511 62.7178 90.5341 63.22 90.1218 63.638C89.7096 64.056 89.2117 64.3799 88.6625 64.5873C88.1133 64.7948 87.5257 64.881 86.94 64.84H80.63V56H86.94C87.5289 55.96 88.1195 56.0482 88.671 56.2586C89.2225 56.469 89.7218 56.7965 90.1344 57.2186C90.547 57.6408 90.8631 58.1474 91.0609 58.7035C91.2587 59.2597 91.3334 59.8521 91.28 60.44ZM86.13 63.44C88.4 63.44 89.55 62.89 89.55 60.44C89.55 57.99 88.4 57.44 86.13 57.44H82.23V63.44H86.13Z" fill="white" stroke="black" stroke-width="0.1" stroke-miterlimit="10"/>
<path d="M95.33 56V64.82H93.73V56H95.33Z" fill="white" stroke="black" stroke-width="0.1" stroke-miterlimit="10"/>
<path d="M107.52 56H109.12V64.82H106.83L99.74 57.53V64.82H98.13V56H100.43L107.52 63.29V56Z" fill="white" stroke="black" stroke-width="0.1" stroke-miterlimit="10"/>
<path d="M117.22 55.76C120.55 55.76 122.32 57.3 122.57 59.17H120.84C120.59 57.96 119.37 57.17 117.22 57.17C113.77 57.17 113.29 59.33 113.29 60.42C113.29 61.51 113.88 63.67 117.38 63.67C118.604 63.721 119.824 63.4847 120.94 62.98V61.58H117.11V60.25H122.57V63.7C120.996 64.6385 119.193 65.1231 117.36 65.1C113.76 65.1 111.56 63.29 111.56 60.44C111.56 57.59 113.65 55.76 117.22 55.76Z" fill="white" stroke="black" stroke-width="0.1" stroke-miterlimit="10"/>
<path d="M52.07 77.84L51 75.94H44.57L43.47 77.84H41.64L46.75 69H48.75L53.87 77.82L52.07 77.84ZM45.36 74.55H50.18L47.77 70.35L45.36 74.55Z" fill="white" stroke="black" stroke-width="0.1" stroke-miterlimit="10"/>
<path d="M56.9999 75C56.9999 76.09 57.9999 76.73 61.2299 76.73C63.8199 76.73 64.7699 76.26 64.7699 75.38C64.7699 74.5 64.1599 74.28 60.8599 74.08C57.1499 73.87 55.6199 73.27 55.6199 71.33C55.6199 69.39 57.6199 68.78 60.7799 68.78C63.9399 68.78 66.0999 69.78 66.1199 71.78H64.3499C64.3499 70.64 63.2699 70.19 60.5199 70.19C57.9399 70.19 57.2899 70.61 57.2899 71.43C57.2899 72.25 57.9399 72.51 60.8699 72.71C64.2999 72.95 66.4399 73.11 66.4399 75.31C66.4399 77.51 64.1099 78.14 61.1899 78.14C57.5899 78.14 55.3399 77.38 55.1899 75.02L56.9999 75Z" fill="white" stroke="black" stroke-width="0.1" stroke-miterlimit="10"/>
<path d="M70.25 75C70.25 76.09 71.25 76.73 74.48 76.73C77.07 76.73 78.02 76.26 78.02 75.38C78.02 74.5 77.41 74.28 74.11 74.08C70.4 73.87 68.87 73.27 68.87 71.33C68.87 69.39 70.87 68.78 74.03 68.78C77.19 68.78 79.36 69.78 79.37 71.78H77.65C77.65 70.64 76.57 70.19 73.82 70.19C71.24 70.19 70.59 70.61 70.59 71.43C70.59 72.25 71.24 72.51 74.17 72.71C77.6 72.95 79.75 73.11 79.75 75.31C79.75 77.51 77.41 78.1 74.5 78.1C70.89 78.1 68.64 77.34 68.5 74.98L70.25 75Z" fill="white" stroke="black" stroke-width="0.1" stroke-miterlimit="10"/>
<path d="M83.8 69V77.82H82.2V69H83.8Z" fill="white" stroke="black" stroke-width="0.1" stroke-miterlimit="10"/>
<path d="M87.87 75C87.87 76.09 88.87 76.73 92.11 76.73C94.69 76.73 95.65 76.26 95.65 75.38C95.65 74.5 95.03 74.28 91.73 74.08C88.02 73.87 86.49 73.27 86.49 71.33C86.49 69.39 88.49 68.78 91.65 68.78C94.81 68.78 96.98 69.78 96.99 71.78H95.27C95.27 70.64 94.19 70.19 91.44 70.19C88.87 70.19 88.21 70.61 88.21 71.43C88.21 72.25 88.87 72.51 91.79 72.71C95.22 72.95 97.37 73.11 97.37 75.31C97.37 77.51 95 78.1 92.12 78.1C88.51 78.1 86.27 77.34 86.12 74.98L87.87 75Z" fill="white" stroke="black" stroke-width="0.1" stroke-miterlimit="10"/>
<path d="M109.66 70.45H105.07V77.84H103.47V70.45H98.86V69H109.66V70.45Z" fill="white" stroke="black" stroke-width="0.1" stroke-miterlimit="10"/>
<path d="M119.08 77.84L118 75.94H111.58L110.49 77.84H108.66L113.76 69H115.76L120.87 77.82L119.08 77.84ZM112.37 74.55H117.19L114.78 70.35L112.37 74.55Z" fill="white" stroke="black" stroke-width="0.1" stroke-miterlimit="10"/>
<path d="M132.38 69H134V77.82H131.7L124.62 70.53V77.82H123V69H125.3L132.38 76.29V69Z" fill="white" stroke="black" stroke-width="0.1" stroke-miterlimit="10"/>
<path d="M147.13 70.45H142.53V77.84H140.94V70.45H136.33V69H147.13V70.45Z" fill="white" stroke="black" stroke-width="0.1" stroke-miterlimit="10"/>
</svg>
