<svg width="214" height="89" viewBox="0 0 214 89" fill="none" xmlns="http://www.w3.org/2000/svg">
<path d="M172.93 27.61H164.93C164.93 35.69 169.75 43.17 176.43 48.49H24.21V56.49H176.21C169.65 61.74 164.95 69.14 164.95 77.37H172.95C172.95 66.32 186.62 56.49 197.39 56.49V48.49C186 48.49 172.93 37.37 172.93 27.61Z" fill="#F9285A"/>
<path d="M64.14 28.43C64.14 22 59.73 18 52.62 18H40.68V50.83H47.25V38.83H52.13L57.95 50.83H65.36L58.68 37.49C60.3614 36.6604 61.7696 35.3658 62.7374 33.7599C63.7051 32.1541 64.1919 30.3042 64.14 28.43ZM57.51 28.51C57.51 32.4 54.51 33.22 51.98 33.22H47.25V23.79H52.14C55.6 23.79 57.51 25.47 57.51 28.51Z" fill="white"/>
<path d="M83.78 23.45C87.06 23.45 89.26 25.71 89.37 29.21V30.21H96V29.21C95.9 21.94 91.23 17.42 83.81 17.42C75.66 17.42 70.81 22.73 70.81 31.62V37.32C70.81 46.21 75.67 51.52 83.81 51.52C91.11 51.47 96 46.9 96 40.11V39.11H89.4V40.11C89.33 43.43 87.25 45.41 83.83 45.41C79.61 45.41 77.56 42.75 77.56 37.29V31.59C77.53 26.1 79.57 23.45 83.78 23.45Z" fill="white"/>
<path d="M122.07 33.34C123.209 32.637 124.146 31.6496 124.788 30.4748C125.429 29.3 125.754 27.9784 125.73 26.64C125.73 21.32 121.73 18.01 115.22 18.01H102.94V50.83H115.38C122.74 50.83 127.31 47.13 127.31 41.18C127.342 39.4943 126.857 37.8393 125.921 36.4375C124.984 35.0358 123.64 33.9548 122.07 33.34ZM113.59 31.14H109.46V23.64H114.1C117.43 23.64 119.1 24.92 119.1 27.43C119.12 30.5 116.11 31.14 113.59 31.14ZM120.59 40.84C120.59 42.69 119.94 45.15 114.27 45.15H109.5V36.63H114.16C120.55 36.63 120.55 39.79 120.55 40.84H120.59Z" fill="white"/>
<path d="M151.41 23.88V18.01H131.86V23.88H138.34V44.96H131.86V50.83H151.41V44.96H144.93V23.88H151.41Z" fill="white"/>
<path d="M55.39 64.84H53.78V57.49L49.31 64.84H47.84L43.37 57.49V64.84H41.76V56H44.29L48.58 63L52.87 56H55.39V64.84Z" fill="white" stroke="black" stroke-width="0.1" stroke-miterlimit="10"/>
<path d="M59.8 63.41H66.58V64.84H58.19V56H59.8V63.41Z" fill="white" stroke="black" stroke-width="0.1" stroke-miterlimit="10"/>
<path d="M70.2 62C70.2 63.09 71.2 63.73 74.43 63.73C77.02 63.73 77.97 63.26 77.97 62.38C77.97 61.5 77.36 61.28 74.06 61.08C70.35 60.87 68.82 60.27 68.82 58.33C68.82 56.39 70.82 55.78 73.98 55.78C77.14 55.78 79.3 56.78 79.32 58.78H77.6C77.6 57.64 76.52 57.19 73.77 57.19C71.19 57.19 70.54 57.61 70.54 58.43C70.54 59.25 71.19 59.51 74.12 59.71C77.55 59.95 79.69 60.11 79.69 62.31C79.69 64.51 77.36 65.14 74.44 65.14C70.84 65.14 68.59 64.38 68.44 62.02L70.2 62Z" fill="white" stroke="black" stroke-width="0.1" stroke-miterlimit="10"/>
</svg>
