<svg width="214" height="89" viewBox="0 0 214 89" fill="none" xmlns="http://www.w3.org/2000/svg">
<path d="M172.93 27.61H164.93C164.93 35.69 169.75 43.17 176.43 48.49H24.21V56.49H176.21C169.65 61.74 164.95 69.14 164.95 77.37H172.95C172.95 66.32 186.62 56.49 197.39 56.49V48.49C186 48.49 172.93 37.37 172.93 27.61Z" fill="#FF9D45"/>
<path d="M64.14 28.43C64.14 22 59.73 18 52.62 18H40.68V50.83H47.25V38.83H52.13L57.95 50.83H65.36L58.68 37.49C60.3614 36.6604 61.7696 35.3658 62.7374 33.7599C63.7051 32.1541 64.1919 30.3042 64.14 28.43ZM57.51 28.51C57.51 32.4 54.51 33.22 51.98 33.22H47.25V23.79H52.14C55.6 23.79 57.51 25.47 57.51 28.51Z" fill="white"/>
<path d="M83.78 23.45C87.06 23.45 89.26 25.71 89.37 29.21V30.21H96V29.21C95.9 21.94 91.23 17.42 83.81 17.42C75.66 17.42 70.81 22.73 70.81 31.62V37.32C70.81 46.21 75.67 51.52 83.81 51.52C91.11 51.47 96 46.9 96 40.11V39.11H89.4V40.11C89.33 43.43 87.25 45.41 83.83 45.41C79.61 45.41 77.56 42.75 77.56 37.29V31.59C77.53 26.1 79.57 23.45 83.78 23.45Z" fill="white"/>
<path d="M122.07 33.34C123.209 32.637 124.146 31.6496 124.788 30.4748C125.429 29.3 125.754 27.9784 125.73 26.64C125.73 21.32 121.73 18.01 115.22 18.01H102.94V50.83H115.38C122.74 50.83 127.31 47.13 127.31 41.18C127.342 39.4943 126.857 37.8393 125.921 36.4375C124.984 35.0358 123.64 33.9548 122.07 33.34ZM113.59 31.14H109.46V23.64H114.1C117.43 23.64 119.1 24.92 119.1 27.43C119.12 30.5 116.11 31.14 113.59 31.14ZM120.59 40.84C120.59 42.69 119.94 45.15 114.27 45.15H109.5V36.63H114.16C120.55 36.63 120.55 39.79 120.55 40.84H120.59Z" fill="white"/>
<path d="M151.41 23.88V18.01H131.86V23.88H138.34V44.96H131.86V50.83H151.41V44.96H144.93V23.88H151.41Z" fill="white"/>
<path d="M51.85 63.59L52.93 64.67L51.93 65.67L50.69 64.41C49.6441 64.8778 48.5051 65.1002 47.36 65.06C43.5 65.06 41.67 63.23 41.67 60.39C41.67 57.55 43.5 55.73 47.36 55.73C51.22 55.73 53 57.6 53 60.42C53.0262 60.998 52.9381 61.5756 52.7407 62.1195C52.5434 62.6635 52.2407 63.1632 51.85 63.59ZM49.51 63.31L48 61.74L49 60.74L50.7 62.46C51.1159 61.8786 51.3237 61.174 51.29 60.46C51.29 58.19 49.84 57.24 47.29 57.24C44.74 57.24 43.29 58.18 43.29 60.46C43.29 62.74 44.76 63.7 47.29 63.7C48.0483 63.7149 48.8022 63.5824 49.51 63.31Z" fill="white" stroke="black" stroke-width="0.1" stroke-miterlimit="10"/>
<path d="M66.07 60.55C66.07 63.6 64.4 65.09 60.54 65.09C56.68 65.09 55 63.61 55 60.55V56H56.6V60.5C56.6 61.91 56.95 63.64 60.52 63.64C64.09 63.64 64.45 61.9 64.45 60.5V56H66.05L66.07 60.55Z" fill="white" stroke="black" stroke-width="0.1" stroke-miterlimit="10"/>
<path d="M77.72 64.84L76.63 62.94H70.21L69.12 64.84H67.29L72.4 56H74.4L79.51 64.82L77.72 64.84ZM71 61.55H75.83L73.42 57.35L71 61.55Z" fill="white" stroke="black" stroke-width="0.1" stroke-miterlimit="10"/>
<path d="M83.25 63.41H90V64.84H81.64V56H83.25V63.41Z" fill="white" stroke="black" stroke-width="0.1" stroke-miterlimit="10"/>
<path d="M94.19 56V64.82H92.58V56H94.19Z" fill="white" stroke="black" stroke-width="0.1" stroke-miterlimit="10"/>
<path d="M106.28 57.45H98.6V60.45H105.53V61.88H98.6V64.88H97V56H106.29L106.28 57.45Z" fill="white" stroke="black" stroke-width="0.1" stroke-miterlimit="10"/>
<path d="M110.34 56V64.82H108.74V56H110.34Z" fill="white" stroke="black" stroke-width="0.1" stroke-miterlimit="10"/>
<path d="M122.44 57.42H114.75V59.73H122.19V61.13H114.75V63.45H122.44V64.84H113.14V56H122.44V57.42Z" fill="white" stroke="black" stroke-width="0.1" stroke-miterlimit="10"/>
<path d="M134.91 62.6V64.84H133.31V63C133.31 62.1 133.09 61.88 132.08 61.88H126.62V64.88H125V56H131.6C133.66 56 135.01 56.76 135.01 58.66C135.058 59.1524 134.944 59.6469 134.686 60.069C134.428 60.4911 134.04 60.8179 133.58 61C133.968 61.038 134.325 61.2273 134.574 61.5269C134.823 61.8264 134.943 62.212 134.91 62.6ZM126.62 57.43V60.43H131.19C132.11 60.43 133.3 60.43 133.3 58.91C133.3 57.39 132.11 57.4 131.19 57.4L126.62 57.43Z" fill="white" stroke="black" stroke-width="0.1" stroke-miterlimit="10"/>
</svg>
