<svg width="214" height="89" viewBox="0 0 214 89" fill="none" xmlns="http://www.w3.org/2000/svg">
<path d="M172.93 27.61H164.93C164.93 35.69 169.75 43.17 176.43 48.49H24.21V56.49H176.21C169.65 61.74 164.95 69.14 164.95 77.37H172.95C172.95 66.32 186.62 56.49 197.39 56.49V48.49C186 48.49 172.93 37.37 172.93 27.61Z" fill="#E2DD20"/>
<path d="M64.14 28.43C64.14 22 59.73 18 52.62 18H40.68V50.83H47.25V38.83H52.13L57.95 50.83H65.36L58.68 37.49C60.3614 36.6604 61.7696 35.3658 62.7374 33.7599C63.7051 32.1541 64.1919 30.3042 64.14 28.43ZM57.51 28.51C57.51 32.4 54.51 33.22 51.98 33.22H47.25V23.79H52.14C55.6 23.79 57.51 25.47 57.51 28.51Z" fill="white"/>
<path d="M83.78 23.45C87.06 23.45 89.26 25.71 89.37 29.21V30.21H96V29.21C95.9 21.94 91.23 17.42 83.81 17.42C75.66 17.42 70.81 22.73 70.81 31.62V37.32C70.81 46.21 75.67 51.52 83.81 51.52C91.11 51.47 96 46.9 96 40.11V39.11H89.4V40.11C89.33 43.43 87.25 45.41 83.83 45.41C79.61 45.41 77.56 42.75 77.56 37.29V31.59C77.53 26.1 79.57 23.45 83.78 23.45Z" fill="white"/>
<path d="M122.07 33.34C123.209 32.637 124.146 31.6496 124.788 30.4748C125.429 29.3 125.754 27.9784 125.73 26.64C125.73 21.32 121.73 18.01 115.22 18.01H102.94V50.83H115.38C122.74 50.83 127.31 47.13 127.31 41.18C127.342 39.4943 126.857 37.8393 125.921 36.4375C124.984 35.0358 123.64 33.9548 122.07 33.34ZM113.59 31.14H109.46V23.64H114.1C117.43 23.64 119.1 24.92 119.1 27.43C119.12 30.5 116.11 31.14 113.59 31.14ZM120.59 40.84C120.59 42.69 119.94 45.15 114.27 45.15H109.5V36.63H114.16C120.55 36.63 120.55 39.79 120.55 40.84H120.59Z" fill="white"/>
<path d="M151.41 23.88V18.01H131.86V23.88H138.34V44.96H131.86V50.83H151.41V44.96H144.93V23.88H151.41Z" fill="white"/>
<path d="M58.44 56H60.16L56.24 64.82H54.15L50.89 57.15L47.44 64.82H45.33L41.64 56H43.36L46.36 63.39L49.71 56H52.1L55.2 63.39L58.44 56Z" fill="white" stroke="black" stroke-width="0.1" stroke-miterlimit="10"/>
<path d="M63.83 56V64.82H62.23V56H63.83Z" fill="white" stroke="black" stroke-width="0.1" stroke-miterlimit="10"/>
<path d="M77.28 60.44C77.3281 61.0197 77.2513 61.603 77.0549 62.1505C76.8584 62.698 76.5469 63.1971 76.1413 63.614C75.7358 64.031 75.2455 64.3562 74.7036 64.5676C74.1617 64.7791 73.5808 64.872 73 64.84H66.63V56H73C73.5845 55.9673 74.1691 56.061 74.7141 56.2749C75.259 56.4887 75.7514 56.8175 76.1577 57.239C76.564 57.6605 76.8745 58.1646 77.0682 58.717C77.2619 59.2694 77.3341 59.8571 77.28 60.44ZM72.13 63.44C74.41 63.44 75.56 62.89 75.56 60.44C75.56 57.99 74.41 57.44 72.13 57.44H68.24V63.44H72.13Z" fill="white" stroke="black" stroke-width="0.1" stroke-miterlimit="10"/>
<path d="M85.27 55.76C88.6 55.76 90.37 57.3 90.62 59.17H88.89C88.64 57.96 87.42 57.17 85.27 57.17C81.82 57.17 81.34 59.33 81.34 60.42C81.34 61.51 81.93 63.67 85.42 63.67C86.6492 63.7278 87.8749 63.4984 89 63V61.58H85.16V60.25H90.62V63.7C89.0434 64.6316 87.2412 65.1125 85.41 65.09C81.81 65.09 79.61 63.29 79.61 60.44C79.61 57.59 81.69 55.76 85.27 55.76Z" fill="white" stroke="black" stroke-width="0.1" stroke-miterlimit="10"/>
<path d="M102.49 57.42H94.81V59.73H102.24V61.13H94.81V63.45H102.49V64.84H93.2V56H102.49V57.42Z" fill="white" stroke="black" stroke-width="0.1" stroke-miterlimit="10"/>
<path d="M115.62 57.45H111V64.84H109.41V57.45H104.8V56H115.6L115.62 57.45Z" fill="white" stroke="black" stroke-width="0.1" stroke-miterlimit="10"/>
<path d="M119 62C119 63.09 120 63.73 123.24 63.73C125.82 63.73 126.78 63.26 126.78 62.38C126.78 61.5 126.16 61.28 122.86 61.08C119.15 60.87 117.62 60.27 117.62 58.33C117.62 56.39 119.62 55.78 122.78 55.78C125.94 55.78 128.11 56.78 128.12 58.78H126.4C126.4 57.64 125.32 57.19 122.57 57.19C120 57.19 119.34 57.61 119.34 58.43C119.34 59.25 120 59.51 122.92 59.71C126.35 59.95 128.5 60.11 128.5 62.31C128.5 64.51 126.16 65.13 123.25 65.13C119.64 65.13 117.4 64.38 117.25 62.02L119 62Z" fill="white" stroke="black" stroke-width="0.1" stroke-miterlimit="10"/>
</svg>
